<?xml version="1.0" encoding="UTF-8" standalone="no"?>
<!DOCTYPE svg PUBLIC "-//W3C//DTD SVG 1.1//EN"
 "http://www.w3.org/Graphics/SVG/1.1/DTD/svg11.dtd">
<!-- Generated by graphviz version 2.26.3 (20100126.1600)
 -->
<!-- Title: controllers_diagram Pages: 1 -->
<svg width="733pt" height="785pt"
 viewBox="0.00 0.00 733.17 784.64" xmlns="http://www.w3.org/2000/svg" xmlns:xlink="http://www.w3.org/1999/xlink">
<g id="graph1" class="graph" transform="scale(1 1) rotate(0) translate(4 780.642)">
<title>controllers_diagram</title>
<polygon fill="white" stroke="white" points="-4,5 -4,-780.642 730.166,-780.642 730.166,5 -4,5"/>
<!-- _diagram_info -->
<g id="node1" class="node"><title>_diagram_info</title>
<text text-anchor="start" x="357" y="-78.3" font-family="Times Roman,serif" font-size="13.00">Controllers diagram</text>
<text text-anchor="start" x="357" y="-61.3" font-family="Times Roman,serif" font-size="13.00">Date: Mar 29 2014 &#45; 21:54</text>
<text text-anchor="start" x="357" y="-44.3" font-family="Times Roman,serif" font-size="13.00">Migration version: 20140310084104</text>
<text text-anchor="start" x="357" y="-27.3" font-family="Times Roman,serif" font-size="13.00">Generated by RailRoady 1.1.1</text>
<text text-anchor="start" x="357" y="-10.3" font-family="Times Roman,serif" font-size="13.00">http://railroady.prestonlee.com</text>
</g>
<!-- CampaignsController -->
<g id="node2" class="node"><title>CampaignsController</title>
<polyline fill="none" stroke="black" points="70.9,-59.5 207.9,-59.5 "/>
<path fill="none" stroke="black" d="M207.9,-59.5C213.9,-59.5 219.9,-65.5 219.9,-71.5"/>
<polyline fill="none" stroke="black" points="219.9,-71.5 219.9,-311.5 "/>
<path fill="none" stroke="black" d="M219.9,-311.5C219.9,-317.5 213.9,-323.5 207.9,-323.5"/>
<polyline fill="none" stroke="black" points="207.9,-323.5 70.9,-323.5 "/>
<path fill="none" stroke="black" d="M70.9,-323.5C64.9,-323.5 58.9,-317.5 58.9,-311.5"/>
<polyline fill="none" stroke="black" points="58.9,-311.5 58.9,-71.5 "/>
<path fill="none" stroke="black" d="M58.9,-71.5C58.9,-65.5 64.9,-59.5 70.9,-59.5"/>
<text text-anchor="middle" x="139.4" y="-306.9" font-family="Times Roman,serif" font-size="14.00">CampaignsController</text>
<polyline fill="none" stroke="black" points="58.9,-297.5 219.9,-297.5 "/>
<text text-anchor="start" x="66.9" y="-280.9" font-family="Times Roman,serif" font-size="14.00">create</text>
<text text-anchor="start" x="66.9" y="-262.9" font-family="Times Roman,serif" font-size="14.00">destroy</text>
<text text-anchor="start" x="66.9" y="-244.9" font-family="Times Roman,serif" font-size="14.00">edit</text>
<text text-anchor="start" x="66.9" y="-226.9" font-family="Times Roman,serif" font-size="14.00">index</text>
<text text-anchor="start" x="66.9" y="-208.9" font-family="Times Roman,serif" font-size="14.00">new</text>
<text text-anchor="start" x="66.9" y="-190.9" font-family="Times Roman,serif" font-size="14.00">show</text>
<text text-anchor="start" x="66.9" y="-172.9" font-family="Times Roman,serif" font-size="14.00">update</text>
<text text-anchor="start" x="66.9" y="-154.9" font-family="Times Roman,serif" font-size="14.00">vote_for_campaign</text>
<polyline fill="none" stroke="black" points="58.9,-145.5 219.9,-145.5 "/>
<polyline fill="none" stroke="black" points="58.9,-121.5 219.9,-121.5 "/>
<text text-anchor="start" x="66.9" y="-104.9" font-family="Times Roman,serif" font-size="14.00">_layout</text>
<text text-anchor="start" x="66.9" y="-86.9" font-family="Times Roman,serif" font-size="14.00">campaign_params</text>
<text text-anchor="start" x="66.9" y="-68.9" font-family="Times Roman,serif" font-size="14.00">set_campaign</text>
</g>
<!-- ApplicationController -->
<g id="node3" class="node"><title>ApplicationController</title>
<polyline fill="none" stroke="black" points="245.482,-324.752 463.482,-324.752 "/>
<path fill="none" stroke="black" d="M463.482,-324.752C469.482,-324.752 475.482,-330.752 475.482,-336.752"/>
<polyline fill="none" stroke="black" points="475.482,-336.752 475.482,-468.752 "/>
<path fill="none" stroke="black" d="M475.482,-468.752C475.482,-474.752 469.482,-480.752 463.482,-480.752"/>
<polyline fill="none" stroke="black" points="463.482,-480.752 245.482,-480.752 "/>
<path fill="none" stroke="black" d="M245.482,-480.752C239.482,-480.752 233.482,-474.752 233.482,-468.752"/>
<polyline fill="none" stroke="black" points="233.482,-468.752 233.482,-336.752 "/>
<path fill="none" stroke="black" d="M233.482,-336.752C233.482,-330.752 239.482,-324.752 245.482,-324.752"/>
<text text-anchor="middle" x="354.482" y="-464.152" font-family="Times Roman,serif" font-size="14.00">ApplicationController</text>
<polyline fill="none" stroke="black" points="233.482,-454.752 475.482,-454.752 "/>
<text text-anchor="start" x="241.482" y="-438.152" font-family="Times Roman,serif" font-size="14.00">configure_permitted_parameters</text>
<text text-anchor="start" x="241.482" y="-420.152" font-family="Times Roman,serif" font-size="14.00">get_language</text>
<text text-anchor="start" x="241.482" y="-402.152" font-family="Times Roman,serif" font-size="14.00">populate_categories</text>
<text text-anchor="start" x="241.482" y="-384.152" font-family="Times Roman,serif" font-size="14.00">title_search</text>
<polyline fill="none" stroke="black" points="233.482,-374.752 475.482,-374.752 "/>
<polyline fill="none" stroke="black" points="233.482,-350.752 475.482,-350.752 "/>
<text text-anchor="start" x="241.482" y="-334.152" font-family="Times Roman,serif" font-size="14.00">_layout</text>
</g>
<!-- ApplicationController&#45;&gt;CampaignsController -->
<g id="edge2" class="edge"><title>ApplicationController&#45;&gt;CampaignsController</title>
<path fill="none" stroke="black" d="M275.004,-324.689C257.054,-307.059 237.983,-288.328 219.988,-270.653"/>
</g>
<!-- UsersController -->
<g id="node4" class="node"><title>UsersController</title>
<polyline fill="none" stroke="black" points="523.854,-134.165 623.854,-134.165 "/>
<path fill="none" stroke="black" d="M623.854,-134.165C629.854,-134.165 635.854,-140.165 635.854,-146.165"/>
<polyline fill="none" stroke="black" points="635.854,-146.165 635.854,-224.165 "/>
<path fill="none" stroke="black" d="M635.854,-224.165C635.854,-230.165 629.854,-236.165 623.854,-236.165"/>
<polyline fill="none" stroke="black" points="623.854,-236.165 523.854,-236.165 "/>
<path fill="none" stroke="black" d="M523.854,-236.165C517.854,-236.165 511.854,-230.165 511.854,-224.165"/>
<polyline fill="none" stroke="black" points="511.854,-224.165 511.854,-146.165 "/>
<path fill="none" stroke="black" d="M511.854,-146.165C511.854,-140.165 517.854,-134.165 523.854,-134.165"/>
<text text-anchor="middle" x="573.854" y="-219.565" font-family="Times Roman,serif" font-size="14.00">UsersController</text>
<polyline fill="none" stroke="black" points="511.854,-210.165 635.854,-210.165 "/>
<text text-anchor="start" x="519.854" y="-193.565" font-family="Times Roman,serif" font-size="14.00">show</text>
<polyline fill="none" stroke="black" points="511.854,-184.165 635.854,-184.165 "/>
<polyline fill="none" stroke="black" points="511.854,-160.165 635.854,-160.165 "/>
<text text-anchor="start" x="519.854" y="-143.565" font-family="Times Roman,serif" font-size="14.00">_layout</text>
</g>
<!-- ApplicationController&#45;&gt;UsersController -->
<g id="edge4" class="edge"><title>ApplicationController&#45;&gt;UsersController</title>
<path fill="none" stroke="black" d="M433.37,-324.505C462.974,-295.143 495.834,-262.55 522.326,-236.273"/>
</g>
<!-- CategoriesController -->
<g id="node5" class="node"><title>CategoriesController</title>
<polyline fill="none" stroke="black" points="318.559,-637.142 453.559,-637.142 "/>
<path fill="none" stroke="black" d="M453.559,-637.142C459.559,-637.142 465.559,-643.142 465.559,-649.142"/>
<polyline fill="none" stroke="black" points="465.559,-649.142 465.559,-763.142 "/>
<path fill="none" stroke="black" d="M465.559,-763.142C465.559,-769.142 459.559,-775.142 453.559,-775.142"/>
<polyline fill="none" stroke="black" points="453.559,-775.142 318.559,-775.142 "/>
<path fill="none" stroke="black" d="M318.559,-775.142C312.559,-775.142 306.559,-769.142 306.559,-763.142"/>
<polyline fill="none" stroke="black" points="306.559,-763.142 306.559,-649.142 "/>
<path fill="none" stroke="black" d="M306.559,-649.142C306.559,-643.142 312.559,-637.142 318.559,-637.142"/>
<text text-anchor="middle" x="386.059" y="-758.542" font-family="Times Roman,serif" font-size="14.00">CategoriesController</text>
<polyline fill="none" stroke="black" points="306.559,-749.142 465.559,-749.142 "/>
<text text-anchor="start" x="314.559" y="-732.542" font-family="Times Roman,serif" font-size="14.00">index</text>
<polyline fill="none" stroke="black" points="306.559,-723.142 465.559,-723.142 "/>
<polyline fill="none" stroke="black" points="306.559,-699.142 465.559,-699.142 "/>
<text text-anchor="start" x="314.559" y="-682.542" font-family="Times Roman,serif" font-size="14.00">_layout</text>
<text text-anchor="start" x="314.559" y="-664.542" font-family="Times Roman,serif" font-size="14.00">category_params</text>
<text text-anchor="start" x="314.559" y="-646.542" font-family="Times Roman,serif" font-size="14.00">set_category</text>
</g>
<!-- ApplicationController&#45;&gt;CategoriesController -->
<g id="edge6" class="edge"><title>ApplicationController&#45;&gt;CategoriesController</title>
<path fill="none" stroke="black" d="M362.614,-480.882C367.639,-529.164 374.03,-590.565 378.869,-637.064"/>
</g>
<!-- TransactionsController -->
<g id="node6" class="node"><title>TransactionsController</title>
<polyline fill="none" stroke="black" points="565.166,-462.861 712.166,-462.861 "/>
<path fill="none" stroke="black" d="M712.166,-462.861C718.166,-462.861 724.166,-468.861 724.166,-474.861"/>
<polyline fill="none" stroke="black" points="724.166,-474.861 724.166,-714.861 "/>
<path fill="none" stroke="black" d="M724.166,-714.861C724.166,-720.861 718.166,-726.861 712.166,-726.861"/>
<polyline fill="none" stroke="black" points="712.166,-726.861 565.166,-726.861 "/>
<path fill="none" stroke="black" d="M565.166,-726.861C559.166,-726.861 553.166,-720.861 553.166,-714.861"/>
<polyline fill="none" stroke="black" points="553.166,-714.861 553.166,-474.861 "/>
<path fill="none" stroke="black" d="M553.166,-474.861C553.166,-468.861 559.166,-462.861 565.166,-462.861"/>
<text text-anchor="middle" x="638.666" y="-710.261" font-family="Times Roman,serif" font-size="14.00">TransactionsController</text>
<polyline fill="none" stroke="black" points="553.166,-700.861 724.166,-700.861 "/>
<text text-anchor="start" x="561.166" y="-684.261" font-family="Times Roman,serif" font-size="14.00">create</text>
<text text-anchor="start" x="561.166" y="-666.261" font-family="Times Roman,serif" font-size="14.00">credit_card_form</text>
<text text-anchor="start" x="561.166" y="-648.261" font-family="Times Roman,serif" font-size="14.00">generate_otp_code</text>
<text text-anchor="start" x="561.166" y="-630.261" font-family="Times Roman,serif" font-size="14.00">index</text>
<text text-anchor="start" x="561.166" y="-612.261" font-family="Times Roman,serif" font-size="14.00">new</text>
<text text-anchor="start" x="561.166" y="-594.261" font-family="Times Roman,serif" font-size="14.00">show</text>
<text text-anchor="start" x="561.166" y="-576.261" font-family="Times Roman,serif" font-size="14.00">verify</text>
<polyline fill="none" stroke="black" points="553.166,-566.861 724.166,-566.861 "/>
<polyline fill="none" stroke="black" points="553.166,-542.861 724.166,-542.861 "/>
<text text-anchor="start" x="561.166" y="-526.261" font-family="Times Roman,serif" font-size="14.00">_layout</text>
<text text-anchor="start" x="561.166" y="-508.261" font-family="Times Roman,serif" font-size="14.00">send_otp_code</text>
<text text-anchor="start" x="561.166" y="-490.261" font-family="Times Roman,serif" font-size="14.00">set_transaction</text>
<text text-anchor="start" x="561.166" y="-472.261" font-family="Times Roman,serif" font-size="14.00">transaction_params</text>
</g>
<!-- ApplicationController&#45;&gt;TransactionsController -->
<g id="edge8" class="edge"><title>ApplicationController&#45;&gt;TransactionsController</title>
<path fill="none" stroke="black" d="M470.07,-480.89C497.731,-499.588 526.78,-519.226 552.823,-536.831"/>
</g>
<!-- BalancedController -->
<g id="node7" class="node"><title>BalancedController</title>
<polyline fill="none" stroke="black" points="13,-539.742 179,-539.742 "/>
<path fill="none" stroke="black" d="M179,-539.742C185,-539.742 191,-545.742 191,-551.742"/>
<polyline fill="none" stroke="black" points="191,-551.742 191,-683.742 "/>
<path fill="none" stroke="black" d="M191,-683.742C191,-689.742 185,-695.742 179,-695.742"/>
<polyline fill="none" stroke="black" points="179,-695.742 13,-695.742 "/>
<path fill="none" stroke="black" d="M13,-695.742C7,-695.742 1,-689.742 1,-683.742"/>
<polyline fill="none" stroke="black" points="1,-683.742 1,-551.742 "/>
<path fill="none" stroke="black" d="M1,-551.742C1,-545.742 7,-539.742 13,-539.742"/>
<text text-anchor="middle" x="96" y="-679.142" font-family="Times Roman,serif" font-size="14.00">BalancedController</text>
<polyline fill="none" stroke="black" points="1,-669.742 191,-669.742 "/>
<text text-anchor="start" x="9" y="-653.142" font-family="Times Roman,serif" font-size="14.00">create_balanced_account</text>
<text text-anchor="start" x="9" y="-635.142" font-family="Times Roman,serif" font-size="14.00">process_payment</text>
<text text-anchor="start" x="9" y="-617.142" font-family="Times Roman,serif" font-size="14.00">store_bank_account</text>
<text text-anchor="start" x="9" y="-599.142" font-family="Times Roman,serif" font-size="14.00">store_credit_card</text>
<polyline fill="none" stroke="black" points="1,-589.742 191,-589.742 "/>
<polyline fill="none" stroke="black" points="1,-565.742 191,-565.742 "/>
<text text-anchor="start" x="9" y="-549.142" font-family="Times Roman,serif" font-size="14.00">_layout</text>
</g>
<!-- ApplicationController&#45;&gt;BalancedController -->
<g id="edge10" class="edge"><title>ApplicationController&#45;&gt;BalancedController</title>
<path fill="none" stroke="black" d="M260.433,-480.976C237.481,-500.066 212.927,-520.489 189.979,-539.576"/>
</g>
</g>
</svg>
