<?xml version="1.0" encoding="UTF-8" standalone="no"?>
<!DOCTYPE svg PUBLIC "-//W3C//DTD SVG 1.1//EN"
 "http://www.w3.org/Graphics/SVG/1.1/DTD/svg11.dtd">
<!-- Generated by graphviz version 2.26.3 (20100126.1600)
 -->
<!-- Title: controllers_diagram Pages: 1 -->
<svg width="920pt" height="854pt"
 viewBox="0.00 0.00 920.00 854.20" xmlns="http://www.w3.org/2000/svg" xmlns:xlink="http://www.w3.org/1999/xlink">
<g id="graph1" class="graph" transform="scale(1 1) rotate(0) translate(4 850.201)">
<title>controllers_diagram</title>
<polygon fill="white" stroke="white" points="-4,5 -4,-850.201 917,-850.201 917,5 -4,5"/>
<!-- _diagram_info -->
<g id="node1" class="node"><title>_diagram_info</title>
<text text-anchor="start" x="669" y="-198.3" font-family="Times Roman,serif" font-size="13.00">Controllers diagram</text>
<text text-anchor="start" x="669" y="-181.3" font-family="Times Roman,serif" font-size="13.00">Date: Mar 17 2014 &#45; 13:44</text>
<text text-anchor="start" x="669" y="-164.3" font-family="Times Roman,serif" font-size="13.00">Migration version: 20140310084104</text>
<text text-anchor="start" x="669" y="-147.3" font-family="Times Roman,serif" font-size="13.00">Generated by RailRoady 1.1.1</text>
<text text-anchor="start" x="669" y="-130.3" font-family="Times Roman,serif" font-size="13.00">http://railroady.prestonlee.com</text>
</g>
<!-- CampaignsController -->
<g id="node2" class="node"><title>CampaignsController</title>
<polyline fill="none" stroke="black" points="29.764,-1.5 166.764,-1.5 "/>
<path fill="none" stroke="black" d="M166.764,-1.5C172.764,-1.5 178.764,-7.5 178.764,-13.5"/>
<polyline fill="none" stroke="black" points="178.764,-13.5 178.764,-253.5 "/>
<path fill="none" stroke="black" d="M178.764,-253.5C178.764,-259.5 172.764,-265.5 166.764,-265.5"/>
<polyline fill="none" stroke="black" points="166.764,-265.5 29.764,-265.5 "/>
<path fill="none" stroke="black" d="M29.764,-265.5C23.764,-265.5 17.764,-259.5 17.764,-253.5"/>
<polyline fill="none" stroke="black" points="17.764,-253.5 17.764,-13.5 "/>
<path fill="none" stroke="black" d="M17.764,-13.5C17.764,-7.5 23.764,-1.5 29.764,-1.5"/>
<text text-anchor="middle" x="98.264" y="-248.9" font-family="Times Roman,serif" font-size="14.00">CampaignsController</text>
<polyline fill="none" stroke="black" points="17.764,-239.5 178.764,-239.5 "/>
<text text-anchor="start" x="25.764" y="-222.9" font-family="Times Roman,serif" font-size="14.00">create</text>
<text text-anchor="start" x="25.764" y="-204.9" font-family="Times Roman,serif" font-size="14.00">destroy</text>
<text text-anchor="start" x="25.764" y="-186.9" font-family="Times Roman,serif" font-size="14.00">edit</text>
<text text-anchor="start" x="25.764" y="-168.9" font-family="Times Roman,serif" font-size="14.00">index</text>
<text text-anchor="start" x="25.764" y="-150.9" font-family="Times Roman,serif" font-size="14.00">new</text>
<text text-anchor="start" x="25.764" y="-132.9" font-family="Times Roman,serif" font-size="14.00">show</text>
<text text-anchor="start" x="25.764" y="-114.9" font-family="Times Roman,serif" font-size="14.00">update</text>
<text text-anchor="start" x="25.764" y="-96.9" font-family="Times Roman,serif" font-size="14.00">vote_for_campaign</text>
<polyline fill="none" stroke="black" points="17.764,-87.5 178.764,-87.5 "/>
<polyline fill="none" stroke="black" points="17.764,-63.5 178.764,-63.5 "/>
<text text-anchor="start" x="25.764" y="-46.9" font-family="Times Roman,serif" font-size="14.00">_layout</text>
<text text-anchor="start" x="25.764" y="-28.9" font-family="Times Roman,serif" font-size="14.00">campaign_params</text>
<text text-anchor="start" x="25.764" y="-10.9" font-family="Times Roman,serif" font-size="14.00">set_campaign</text>
</g>
<!-- ApplicationController -->
<g id="node3" class="node"><title>ApplicationController</title>
<polyline fill="none" stroke="black" points="140.657,-325.701 358.657,-325.701 "/>
<path fill="none" stroke="black" d="M358.657,-325.701C364.657,-325.701 370.657,-331.701 370.657,-337.701"/>
<polyline fill="none" stroke="black" points="370.657,-337.701 370.657,-469.701 "/>
<path fill="none" stroke="black" d="M370.657,-469.701C370.657,-475.701 364.657,-481.701 358.657,-481.701"/>
<polyline fill="none" stroke="black" points="358.657,-481.701 140.657,-481.701 "/>
<path fill="none" stroke="black" d="M140.657,-481.701C134.657,-481.701 128.657,-475.701 128.657,-469.701"/>
<polyline fill="none" stroke="black" points="128.657,-469.701 128.657,-337.701 "/>
<path fill="none" stroke="black" d="M128.657,-337.701C128.657,-331.701 134.657,-325.701 140.657,-325.701"/>
<text text-anchor="middle" x="249.657" y="-465.101" font-family="Times Roman,serif" font-size="14.00">ApplicationController</text>
<polyline fill="none" stroke="black" points="128.657,-455.701 370.657,-455.701 "/>
<text text-anchor="start" x="136.657" y="-439.101" font-family="Times Roman,serif" font-size="14.00">configure_permitted_parameters</text>
<text text-anchor="start" x="136.657" y="-421.101" font-family="Times Roman,serif" font-size="14.00">get_language</text>
<text text-anchor="start" x="136.657" y="-403.101" font-family="Times Roman,serif" font-size="14.00">populate_categories</text>
<text text-anchor="start" x="136.657" y="-385.101" font-family="Times Roman,serif" font-size="14.00">title_search</text>
<polyline fill="none" stroke="black" points="128.657,-375.701 370.657,-375.701 "/>
<polyline fill="none" stroke="black" points="128.657,-351.701 370.657,-351.701 "/>
<text text-anchor="start" x="136.657" y="-335.101" font-family="Times Roman,serif" font-size="14.00">_layout</text>
</g>
<!-- ApplicationController&#45;&gt;CampaignsController -->
<g id="edge2" class="edge"><title>ApplicationController&#45;&gt;CampaignsController</title>
<path fill="none" stroke="black" d="M205.868,-325.548C195.345,-306.767 183.815,-286.188 172.335,-265.699"/>
</g>
<!-- UsersController -->
<g id="node4" class="node"><title>UsersController</title>
<polyline fill="none" stroke="black" points="463.873,-34.4678 563.873,-34.4678 "/>
<path fill="none" stroke="black" d="M563.873,-34.4678C569.873,-34.4678 575.873,-40.4678 575.873,-46.4678"/>
<polyline fill="none" stroke="black" points="575.873,-46.4678 575.873,-142.468 "/>
<path fill="none" stroke="black" d="M575.873,-142.468C575.873,-148.468 569.873,-154.468 563.873,-154.468"/>
<polyline fill="none" stroke="black" points="563.873,-154.468 463.873,-154.468 "/>
<path fill="none" stroke="black" d="M463.873,-154.468C457.873,-154.468 451.873,-148.468 451.873,-142.468"/>
<polyline fill="none" stroke="black" points="451.873,-142.468 451.873,-46.4678 "/>
<path fill="none" stroke="black" d="M451.873,-46.4678C451.873,-40.4678 457.873,-34.4678 463.873,-34.4678"/>
<text text-anchor="middle" x="513.873" y="-137.868" font-family="Times Roman,serif" font-size="14.00">UsersController</text>
<polyline fill="none" stroke="black" points="451.873,-128.468 575.873,-128.468 "/>
<text text-anchor="start" x="459.873" y="-111.868" font-family="Times Roman,serif" font-size="14.00">new_card</text>
<text text-anchor="start" x="459.873" y="-93.8678" font-family="Times Roman,serif" font-size="14.00">show</text>
<polyline fill="none" stroke="black" points="451.873,-84.4678 575.873,-84.4678 "/>
<polyline fill="none" stroke="black" points="451.873,-60.4678 575.873,-60.4678 "/>
<text text-anchor="start" x="459.873" y="-43.8678" font-family="Times Roman,serif" font-size="14.00">_layout</text>
</g>
<!-- ApplicationController&#45;&gt;UsersController -->
<g id="edge4" class="edge"><title>ApplicationController&#45;&gt;UsersController</title>
<path fill="none" stroke="black" d="M316.33,-325.669C361.581,-272.708 420.535,-203.709 462.224,-154.917"/>
</g>
<!-- CategoriesController -->
<g id="node5" class="node"><title>CategoriesController</title>
<polyline fill="none" stroke="black" points="441.108,-598.701 576.108,-598.701 "/>
<path fill="none" stroke="black" d="M576.108,-598.701C582.108,-598.701 588.108,-604.701 588.108,-610.701"/>
<polyline fill="none" stroke="black" points="588.108,-610.701 588.108,-832.701 "/>
<path fill="none" stroke="black" d="M588.108,-832.701C588.108,-838.701 582.108,-844.701 576.108,-844.701"/>
<polyline fill="none" stroke="black" points="576.108,-844.701 441.108,-844.701 "/>
<path fill="none" stroke="black" d="M441.108,-844.701C435.108,-844.701 429.108,-838.701 429.108,-832.701"/>
<polyline fill="none" stroke="black" points="429.108,-832.701 429.108,-610.701 "/>
<path fill="none" stroke="black" d="M429.108,-610.701C429.108,-604.701 435.108,-598.701 441.108,-598.701"/>
<text text-anchor="middle" x="508.608" y="-828.101" font-family="Times Roman,serif" font-size="14.00">CategoriesController</text>
<polyline fill="none" stroke="black" points="429.108,-818.701 588.108,-818.701 "/>
<text text-anchor="start" x="437.108" y="-802.101" font-family="Times Roman,serif" font-size="14.00">create</text>
<text text-anchor="start" x="437.108" y="-784.101" font-family="Times Roman,serif" font-size="14.00">destroy</text>
<text text-anchor="start" x="437.108" y="-766.101" font-family="Times Roman,serif" font-size="14.00">edit</text>
<text text-anchor="start" x="437.108" y="-748.101" font-family="Times Roman,serif" font-size="14.00">index</text>
<text text-anchor="start" x="437.108" y="-730.101" font-family="Times Roman,serif" font-size="14.00">new</text>
<text text-anchor="start" x="437.108" y="-712.101" font-family="Times Roman,serif" font-size="14.00">show</text>
<text text-anchor="start" x="437.108" y="-694.101" font-family="Times Roman,serif" font-size="14.00">update</text>
<polyline fill="none" stroke="black" points="429.108,-684.701 588.108,-684.701 "/>
<polyline fill="none" stroke="black" points="429.108,-660.701 588.108,-660.701 "/>
<text text-anchor="start" x="437.108" y="-644.101" font-family="Times Roman,serif" font-size="14.00">_layout</text>
<text text-anchor="start" x="437.108" y="-626.101" font-family="Times Roman,serif" font-size="14.00">category_params</text>
<text text-anchor="start" x="437.108" y="-608.101" font-family="Times Roman,serif" font-size="14.00">set_category</text>
</g>
<!-- ApplicationController&#45;&gt;CategoriesController -->
<g id="edge6" class="edge"><title>ApplicationController&#45;&gt;CategoriesController</title>
<path fill="none" stroke="black" d="M313.335,-481.9C348.227,-524.749 391.802,-578.26 428.931,-623.856"/>
</g>
<!-- TransactionsController -->
<g id="node6" class="node"><title>TransactionsController</title>
<polyline fill="none" stroke="black" points="509.684,-253.643 656.684,-253.643 "/>
<path fill="none" stroke="black" d="M656.684,-253.643C662.684,-253.643 668.684,-259.643 668.684,-265.643"/>
<polyline fill="none" stroke="black" points="668.684,-265.643 668.684,-559.643 "/>
<path fill="none" stroke="black" d="M668.684,-559.643C668.684,-565.643 662.684,-571.643 656.684,-571.643"/>
<polyline fill="none" stroke="black" points="656.684,-571.643 509.684,-571.643 "/>
<path fill="none" stroke="black" d="M509.684,-571.643C503.684,-571.643 497.684,-565.643 497.684,-559.643"/>
<polyline fill="none" stroke="black" points="497.684,-559.643 497.684,-265.643 "/>
<path fill="none" stroke="black" d="M497.684,-265.643C497.684,-259.643 503.684,-253.643 509.684,-253.643"/>
<text text-anchor="middle" x="583.184" y="-555.043" font-family="Times Roman,serif" font-size="14.00">TransactionsController</text>
<polyline fill="none" stroke="black" points="497.684,-545.643 668.684,-545.643 "/>
<text text-anchor="start" x="505.684" y="-529.043" font-family="Times Roman,serif" font-size="14.00">create</text>
<text text-anchor="start" x="505.684" y="-511.043" font-family="Times Roman,serif" font-size="14.00">credit_card_form</text>
<text text-anchor="start" x="505.684" y="-493.043" font-family="Times Roman,serif" font-size="14.00">destroy</text>
<text text-anchor="start" x="505.684" y="-475.043" font-family="Times Roman,serif" font-size="14.00">edit</text>
<text text-anchor="start" x="505.684" y="-457.043" font-family="Times Roman,serif" font-size="14.00">generate_otp_code</text>
<text text-anchor="start" x="505.684" y="-439.043" font-family="Times Roman,serif" font-size="14.00">index</text>
<text text-anchor="start" x="505.684" y="-421.043" font-family="Times Roman,serif" font-size="14.00">new</text>
<text text-anchor="start" x="505.684" y="-403.043" font-family="Times Roman,serif" font-size="14.00">show</text>
<text text-anchor="start" x="505.684" y="-385.043" font-family="Times Roman,serif" font-size="14.00">update</text>
<text text-anchor="start" x="505.684" y="-367.043" font-family="Times Roman,serif" font-size="14.00">verify</text>
<polyline fill="none" stroke="black" points="497.684,-357.643 668.684,-357.643 "/>
<polyline fill="none" stroke="black" points="497.684,-333.643 668.684,-333.643 "/>
<text text-anchor="start" x="505.684" y="-317.043" font-family="Times Roman,serif" font-size="14.00">_layout</text>
<text text-anchor="start" x="505.684" y="-299.043" font-family="Times Roman,serif" font-size="14.00">send_otp_code</text>
<text text-anchor="start" x="505.684" y="-281.043" font-family="Times Roman,serif" font-size="14.00">set_transaction</text>
<text text-anchor="start" x="505.684" y="-263.043" font-family="Times Roman,serif" font-size="14.00">transaction_params</text>
</g>
<!-- ApplicationController&#45;&gt;TransactionsController -->
<g id="edge8" class="edge"><title>ApplicationController&#45;&gt;TransactionsController</title>
<path fill="none" stroke="black" d="M371.011,-406.955C413.012,-408.081 459.173,-409.319 497.682,-410.351"/>
</g>
<!-- BalancedController -->
<g id="node7" class="node"><title>BalancedController</title>
<polyline fill="none" stroke="black" points="13,-596.617 179,-596.617 "/>
<path fill="none" stroke="black" d="M179,-596.617C185,-596.617 191,-602.617 191,-608.617"/>
<polyline fill="none" stroke="black" points="191,-608.617 191,-740.617 "/>
<path fill="none" stroke="black" d="M191,-740.617C191,-746.617 185,-752.617 179,-752.617"/>
<polyline fill="none" stroke="black" points="179,-752.617 13,-752.617 "/>
<path fill="none" stroke="black" d="M13,-752.617C7,-752.617 1,-746.617 1,-740.617"/>
<polyline fill="none" stroke="black" points="1,-740.617 1,-608.617 "/>
<path fill="none" stroke="black" d="M1,-608.617C1,-602.617 7,-596.617 13,-596.617"/>
<text text-anchor="middle" x="96" y="-736.017" font-family="Times Roman,serif" font-size="14.00">BalancedController</text>
<polyline fill="none" stroke="black" points="1,-726.617 191,-726.617 "/>
<text text-anchor="start" x="9" y="-710.017" font-family="Times Roman,serif" font-size="14.00">create_balanced_account</text>
<text text-anchor="start" x="9" y="-692.017" font-family="Times Roman,serif" font-size="14.00">process_payment</text>
<text text-anchor="start" x="9" y="-674.017" font-family="Times Roman,serif" font-size="14.00">store_bank_account</text>
<text text-anchor="start" x="9" y="-656.017" font-family="Times Roman,serif" font-size="14.00">store_credit_card</text>
<polyline fill="none" stroke="black" points="1,-646.617 191,-646.617 "/>
<polyline fill="none" stroke="black" points="1,-622.617 191,-622.617 "/>
<text text-anchor="start" x="9" y="-606.017" font-family="Times Roman,serif" font-size="14.00">_layout</text>
</g>
<!-- ApplicationController&#45;&gt;BalancedController -->
<g id="edge10" class="edge"><title>ApplicationController&#45;&gt;BalancedController</title>
<path fill="none" stroke="black" d="M205.213,-482.061C184.827,-518.004 160.718,-560.512 140.344,-596.433"/>
</g>
</g>
</svg>
