<?xml version="1.0" encoding="UTF-8" standalone="no"?>
<!DOCTYPE svg PUBLIC "-//W3C//DTD SVG 1.1//EN"
 "http://www.w3.org/Graphics/SVG/1.1/DTD/svg11.dtd">
<!-- Generated by graphviz version 2.26.3 (20100126.1600)
 -->
<!-- Title: models_diagram Pages: 1 -->
<svg width="1236pt" height="1312pt"
 viewBox="0.00 0.00 1236.00 1312.00" xmlns="http://www.w3.org/2000/svg" xmlns:xlink="http://www.w3.org/1999/xlink">
<g id="graph1" class="graph" transform="scale(1 1) rotate(0) translate(4 1308)">
<title>models_diagram</title>
<polygon fill="white" stroke="white" points="-4,5 -4,-1308 1233,-1308 1233,5 -4,5"/>
<!-- _diagram_info -->
<g id="node1" class="node"><title>_diagram_info</title>
<text text-anchor="start" x="226" y="-1287.8" font-family="Times Roman,serif" font-size="13.00">Models diagram</text>
<text text-anchor="start" x="226" y="-1270.8" font-family="Times Roman,serif" font-size="13.00">Date: Mar 17 2014 &#45; 13:44</text>
<text text-anchor="start" x="226" y="-1253.8" font-family="Times Roman,serif" font-size="13.00">Migration version: 20140310084104</text>
<text text-anchor="start" x="226" y="-1236.8" font-family="Times Roman,serif" font-size="13.00">Generated by RailRoady 1.1.1</text>
<text text-anchor="start" x="226" y="-1219.8" font-family="Times Roman,serif" font-size="13.00">http://railroady.prestonlee.com</text>
</g>
<!-- Vote -->
<g id="node2" class="node"><title>Vote</title>
<polyline fill="none" stroke="black" points="581.5,-37 722.5,-37 "/>
<path fill="none" stroke="black" d="M722.5,-37C728.5,-37 734.5,-43 734.5,-49"/>
<polyline fill="none" stroke="black" points="734.5,-49 734.5,-203 "/>
<path fill="none" stroke="black" d="M734.5,-203C734.5,-209 728.5,-215 722.5,-215"/>
<polyline fill="none" stroke="black" points="722.5,-215 581.5,-215 "/>
<path fill="none" stroke="black" d="M581.5,-215C575.5,-215 569.5,-209 569.5,-203"/>
<polyline fill="none" stroke="black" points="569.5,-203 569.5,-49 "/>
<path fill="none" stroke="black" d="M569.5,-49C569.5,-43 575.5,-37 581.5,-37"/>
<text text-anchor="middle" x="652" y="-198.4" font-family="Times Roman,serif" font-size="14.00">Vote</text>
<polyline fill="none" stroke="black" points="569.5,-189 734.5,-189 "/>
<text text-anchor="start" x="577.5" y="-172.4" font-family="Times Roman,serif" font-size="14.00">id :integer</text>
<text text-anchor="start" x="577.5" y="-154.4" font-family="Times Roman,serif" font-size="14.00">vote :boolean</text>
<text text-anchor="start" x="577.5" y="-136.4" font-family="Times Roman,serif" font-size="14.00">voteable_id :integer</text>
<text text-anchor="start" x="577.5" y="-118.4" font-family="Times Roman,serif" font-size="14.00">voteable_type :string</text>
<text text-anchor="start" x="577.5" y="-100.4" font-family="Times Roman,serif" font-size="14.00">voter_id :integer</text>
<text text-anchor="start" x="577.5" y="-82.4" font-family="Times Roman,serif" font-size="14.00">voter_type :string</text>
<text text-anchor="start" x="577.5" y="-64.4" font-family="Times Roman,serif" font-size="14.00">created_at :datetime</text>
<text text-anchor="start" x="577.5" y="-46.4" font-family="Times Roman,serif" font-size="14.00">updated_at :datetime</text>
</g>
<!-- AdminUser -->
<g id="node3" class="node"><title>AdminUser</title>
<polyline fill="none" stroke="black" points="895,-867 1125,-867 "/>
<path fill="none" stroke="black" d="M1125,-867C1131,-867 1137,-873 1137,-879"/>
<polyline fill="none" stroke="black" points="1137,-879 1137,-1123 "/>
<path fill="none" stroke="black" d="M1137,-1123C1137,-1129 1131,-1135 1125,-1135"/>
<polyline fill="none" stroke="black" points="1125,-1135 895,-1135 "/>
<path fill="none" stroke="black" d="M895,-1135C889,-1135 883,-1129 883,-1123"/>
<polyline fill="none" stroke="black" points="883,-1123 883,-879 "/>
<path fill="none" stroke="black" d="M883,-879C883,-873 889,-867 895,-867"/>
<text text-anchor="middle" x="1010" y="-1118.4" font-family="Times Roman,serif" font-size="14.00">AdminUser</text>
<polyline fill="none" stroke="black" points="883,-1109 1137,-1109 "/>
<text text-anchor="start" x="891" y="-1092.4" font-family="Times Roman,serif" font-size="14.00">id :integer</text>
<text text-anchor="start" x="891" y="-1074.4" font-family="Times Roman,serif" font-size="14.00">email :string</text>
<text text-anchor="start" x="891" y="-1056.4" font-family="Times Roman,serif" font-size="14.00">encrypted_password :string</text>
<text text-anchor="start" x="891" y="-1038.4" font-family="Times Roman,serif" font-size="14.00">reset_password_token :string</text>
<text text-anchor="start" x="891" y="-1020.4" font-family="Times Roman,serif" font-size="14.00">reset_password_sent_at :datetime</text>
<text text-anchor="start" x="891" y="-1002.4" font-family="Times Roman,serif" font-size="14.00">remember_created_at :datetime</text>
<text text-anchor="start" x="891" y="-984.4" font-family="Times Roman,serif" font-size="14.00">sign_in_count :integer</text>
<text text-anchor="start" x="891" y="-966.4" font-family="Times Roman,serif" font-size="14.00">current_sign_in_at :datetime</text>
<text text-anchor="start" x="891" y="-948.4" font-family="Times Roman,serif" font-size="14.00">last_sign_in_at :datetime</text>
<text text-anchor="start" x="891" y="-930.4" font-family="Times Roman,serif" font-size="14.00">current_sign_in_ip :string</text>
<text text-anchor="start" x="891" y="-912.4" font-family="Times Roman,serif" font-size="14.00">last_sign_in_ip :string</text>
<text text-anchor="start" x="891" y="-894.4" font-family="Times Roman,serif" font-size="14.00">created_at :datetime</text>
<text text-anchor="start" x="891" y="-876.4" font-family="Times Roman,serif" font-size="14.00">updated_at :datetime</text>
</g>
<!-- User -->
<g id="node4" class="node"><title>User</title>
<polyline fill="none" stroke="black" points="585,-831 815,-831 "/>
<path fill="none" stroke="black" d="M815,-831C821,-831 827,-837 827,-843"/>
<polyline fill="none" stroke="black" points="827,-843 827,-1159 "/>
<path fill="none" stroke="black" d="M827,-1159C827,-1165 821,-1171 815,-1171"/>
<polyline fill="none" stroke="black" points="815,-1171 585,-1171 "/>
<path fill="none" stroke="black" d="M585,-1171C579,-1171 573,-1165 573,-1159"/>
<polyline fill="none" stroke="black" points="573,-1159 573,-843 "/>
<path fill="none" stroke="black" d="M573,-843C573,-837 579,-831 585,-831"/>
<text text-anchor="middle" x="700" y="-1154.4" font-family="Times Roman,serif" font-size="14.00">User</text>
<polyline fill="none" stroke="black" points="573,-1145 827,-1145 "/>
<text text-anchor="start" x="581" y="-1128.4" font-family="Times Roman,serif" font-size="14.00">id :integer</text>
<text text-anchor="start" x="581" y="-1110.4" font-family="Times Roman,serif" font-size="14.00">email :string</text>
<text text-anchor="start" x="581" y="-1092.4" font-family="Times Roman,serif" font-size="14.00">encrypted_password :string</text>
<text text-anchor="start" x="581" y="-1074.4" font-family="Times Roman,serif" font-size="14.00">reset_password_token :string</text>
<text text-anchor="start" x="581" y="-1056.4" font-family="Times Roman,serif" font-size="14.00">reset_password_sent_at :datetime</text>
<text text-anchor="start" x="581" y="-1038.4" font-family="Times Roman,serif" font-size="14.00">remember_created_at :datetime</text>
<text text-anchor="start" x="581" y="-1020.4" font-family="Times Roman,serif" font-size="14.00">sign_in_count :integer</text>
<text text-anchor="start" x="581" y="-1002.4" font-family="Times Roman,serif" font-size="14.00">current_sign_in_at :datetime</text>
<text text-anchor="start" x="581" y="-984.4" font-family="Times Roman,serif" font-size="14.00">last_sign_in_at :datetime</text>
<text text-anchor="start" x="581" y="-966.4" font-family="Times Roman,serif" font-size="14.00">current_sign_in_ip :string</text>
<text text-anchor="start" x="581" y="-948.4" font-family="Times Roman,serif" font-size="14.00">last_sign_in_ip :string</text>
<text text-anchor="start" x="581" y="-930.4" font-family="Times Roman,serif" font-size="14.00">created_at :datetime</text>
<text text-anchor="start" x="581" y="-912.4" font-family="Times Roman,serif" font-size="14.00">updated_at :datetime</text>
<text text-anchor="start" x="581" y="-894.4" font-family="Times Roman,serif" font-size="14.00">admin :boolean</text>
<text text-anchor="start" x="581" y="-876.4" font-family="Times Roman,serif" font-size="14.00">bday :date</text>
<text text-anchor="start" x="581" y="-858.4" font-family="Times Roman,serif" font-size="14.00">name :string</text>
<text text-anchor="start" x="581" y="-840.4" font-family="Times Roman,serif" font-size="14.00">customer_uri :string</text>
</g>
<!-- User&#45;&gt;Vote -->
<g id="edge10" class="edge"><title>User&#45;&gt;Vote</title>
<path fill="none" stroke="#e0bfea" d="M690.226,-822.83C680.342,-642.649 665.42,-370.641 657.459,-225.513"/>
<ellipse fill="none" stroke="#e0bfea" cx="690.455" cy="-827" rx="4" ry="4"/>
<polygon fill="#e0bfea" stroke="#e0bfea" points="657.446,-225.271 661.391,-215.039 657.172,-220.278 656.898,-215.286 656.898,-215.286 656.898,-215.286 657.172,-220.278 652.405,-215.532 657.446,-225.271 657.446,-225.271"/>
</g>
<!-- Transaction -->
<g id="node5" class="node"><title>Transaction</title>
<polyline fill="none" stroke="black" points="763.5,-1 908.5,-1 "/>
<path fill="none" stroke="black" d="M908.5,-1C914.5,-1 920.5,-7 920.5,-13"/>
<polyline fill="none" stroke="black" points="920.5,-13 920.5,-239 "/>
<path fill="none" stroke="black" d="M920.5,-239C920.5,-245 914.5,-251 908.5,-251"/>
<polyline fill="none" stroke="black" points="908.5,-251 763.5,-251 "/>
<path fill="none" stroke="black" d="M763.5,-251C757.5,-251 751.5,-245 751.5,-239"/>
<polyline fill="none" stroke="black" points="751.5,-239 751.5,-13 "/>
<path fill="none" stroke="black" d="M751.5,-13C751.5,-7 757.5,-1 763.5,-1"/>
<text text-anchor="middle" x="836" y="-234.4" font-family="Times Roman,serif" font-size="14.00">Transaction</text>
<polyline fill="none" stroke="black" points="751.5,-225 920.5,-225 "/>
<text text-anchor="start" x="759.5" y="-208.4" font-family="Times Roman,serif" font-size="14.00">id :integer</text>
<text text-anchor="start" x="759.5" y="-190.4" font-family="Times Roman,serif" font-size="14.00">amount :integer</text>
<text text-anchor="start" x="759.5" y="-172.4" font-family="Times Roman,serif" font-size="14.00">user_id :integer</text>
<text text-anchor="start" x="759.5" y="-154.4" font-family="Times Roman,serif" font-size="14.00">campaign_id :integer</text>
<text text-anchor="start" x="759.5" y="-136.4" font-family="Times Roman,serif" font-size="14.00">created_at :datetime</text>
<text text-anchor="start" x="759.5" y="-118.4" font-family="Times Roman,serif" font-size="14.00">updated_at :datetime</text>
<text text-anchor="start" x="759.5" y="-100.4" font-family="Times Roman,serif" font-size="14.00">otp_secret_key :string</text>
<text text-anchor="start" x="759.5" y="-82.4" font-family="Times Roman,serif" font-size="14.00">verified :boolean</text>
<text text-anchor="start" x="759.5" y="-64.4" font-family="Times Roman,serif" font-size="14.00">country :string</text>
<text text-anchor="start" x="759.5" y="-46.4" font-family="Times Roman,serif" font-size="14.00">state :string</text>
<text text-anchor="start" x="759.5" y="-28.4" font-family="Times Roman,serif" font-size="14.00">ip :string</text>
<text text-anchor="start" x="759.5" y="-10.4" font-family="Times Roman,serif" font-size="14.00">card_uri :string</text>
</g>
<!-- User&#45;&gt;Transaction -->
<g id="edge8" class="edge"><title>User&#45;&gt;Transaction</title>
<path fill="none" stroke="#b7ee9f" d="M727.672,-822.962C753.5,-656.793 791.479,-412.44 814.927,-261.578"/>
<ellipse fill="none" stroke="#b7ee9f" cx="727.038" cy="-827.041" rx="4.00001" ry="4.00001"/>
<polygon fill="#b7ee9f" stroke="#b7ee9f" points="814.984,-261.21 820.967,-252.02 815.752,-256.27 816.52,-251.329 816.52,-251.329 816.52,-251.329 815.752,-256.27 812.074,-250.638 814.984,-261.21 814.984,-261.21"/>
</g>
<!-- Campaign -->
<g id="node6" class="node"><title>Campaign</title>
<polyline fill="none" stroke="black" points="308.5,-307 505.5,-307 "/>
<path fill="none" stroke="black" d="M505.5,-307C511.5,-307 517.5,-313 517.5,-319"/>
<polyline fill="none" stroke="black" points="517.5,-319 517.5,-779 "/>
<path fill="none" stroke="black" d="M517.5,-779C517.5,-785 511.5,-791 505.5,-791"/>
<polyline fill="none" stroke="black" points="505.5,-791 308.5,-791 "/>
<path fill="none" stroke="black" d="M308.5,-791C302.5,-791 296.5,-785 296.5,-779"/>
<polyline fill="none" stroke="black" points="296.5,-779 296.5,-319 "/>
<path fill="none" stroke="black" d="M296.5,-319C296.5,-313 302.5,-307 308.5,-307"/>
<text text-anchor="middle" x="407" y="-774.4" font-family="Times Roman,serif" font-size="14.00">Campaign</text>
<polyline fill="none" stroke="black" points="296.5,-765 517.5,-765 "/>
<text text-anchor="start" x="304.5" y="-748.4" font-family="Times Roman,serif" font-size="14.00">id :integer</text>
<text text-anchor="start" x="304.5" y="-730.4" font-family="Times Roman,serif" font-size="14.00">title :string</text>
<text text-anchor="start" x="304.5" y="-712.4" font-family="Times Roman,serif" font-size="14.00">info :string</text>
<text text-anchor="start" x="304.5" y="-694.4" font-family="Times Roman,serif" font-size="14.00">days :integer</text>
<text text-anchor="start" x="304.5" y="-676.4" font-family="Times Roman,serif" font-size="14.00">target :integer</text>
<text text-anchor="start" x="304.5" y="-658.4" font-family="Times Roman,serif" font-size="14.00">user_id :integer</text>
<text text-anchor="start" x="304.5" y="-640.4" font-family="Times Roman,serif" font-size="14.00">created_at :datetime</text>
<text text-anchor="start" x="304.5" y="-622.4" font-family="Times Roman,serif" font-size="14.00">updated_at :datetime</text>
<text text-anchor="start" x="304.5" y="-604.4" font-family="Times Roman,serif" font-size="14.00">banner_file_name :string</text>
<text text-anchor="start" x="304.5" y="-586.4" font-family="Times Roman,serif" font-size="14.00">banner_content_type :string</text>
<text text-anchor="start" x="304.5" y="-568.4" font-family="Times Roman,serif" font-size="14.00">banner_file_size :integer</text>
<text text-anchor="start" x="304.5" y="-550.4" font-family="Times Roman,serif" font-size="14.00">banner_updated_at :datetime</text>
<text text-anchor="start" x="304.5" y="-532.4" font-family="Times Roman,serif" font-size="14.00">video_file_name :string</text>
<text text-anchor="start" x="304.5" y="-514.4" font-family="Times Roman,serif" font-size="14.00">video_content_type :string</text>
<text text-anchor="start" x="304.5" y="-496.4" font-family="Times Roman,serif" font-size="14.00">video_file_size :integer</text>
<text text-anchor="start" x="304.5" y="-478.4" font-family="Times Roman,serif" font-size="14.00">video_updated_at :datetime</text>
<text text-anchor="start" x="304.5" y="-460.4" font-family="Times Roman,serif" font-size="14.00">collected :integer</text>
<text text-anchor="start" x="304.5" y="-442.4" font-family="Times Roman,serif" font-size="14.00">category_id :integer</text>
<text text-anchor="start" x="304.5" y="-424.4" font-family="Times Roman,serif" font-size="14.00">socialplug :string</text>
<text text-anchor="start" x="304.5" y="-406.4" font-family="Times Roman,serif" font-size="14.00">first_reward :string</text>
<text text-anchor="start" x="304.5" y="-388.4" font-family="Times Roman,serif" font-size="14.00">highest_reward :string</text>
<text text-anchor="start" x="304.5" y="-370.4" font-family="Times Roman,serif" font-size="14.00">order_uri :string</text>
<text text-anchor="start" x="304.5" y="-352.4" font-family="Times Roman,serif" font-size="14.00">bank_uri :string</text>
<text text-anchor="start" x="304.5" y="-334.4" font-family="Times Roman,serif" font-size="14.00">closed_date :date</text>
<text text-anchor="start" x="304.5" y="-316.4" font-family="Times Roman,serif" font-size="14.00">closed_reason :string</text>
</g>
<!-- User&#45;&gt;Campaign -->
<g id="edge6" class="edge"><title>User&#45;&gt;Campaign</title>
<path fill="none" stroke="#5427bf" d="M585.222,-823.936C564.845,-792.501 543.608,-759.74 523.193,-728.246"/>
<ellipse fill="none" stroke="#5427bf" cx="587.471" cy="-827.406" rx="4.00002" ry="4.00002"/>
<polygon fill="#5427bf" stroke="#5427bf" points="523.18,-728.226 521.517,-717.387 520.46,-724.031 517.741,-719.835 517.741,-719.835 517.741,-719.835 520.46,-724.031 513.965,-722.283 523.18,-728.226 523.18,-728.226"/>
</g>
<!-- Campaign&#45;&gt;Vote -->
<g id="edge18" class="edge"><title>Campaign&#45;&gt;Vote</title>
<path fill="none" stroke="#6d9e5e" d="M507.345,-300.117C514.759,-289.559 522.638,-279.452 531,-270 541.303,-258.354 549.547,-262.518 561,-252 570.502,-243.273 579.63,-233.411 588.19,-223.142"/>
<ellipse fill="none" stroke="#6d9e5e" cx="505.054" cy="-303.451" rx="4.00002" ry="4.00002"/>
<polygon fill="#6d9e5e" stroke="#6d9e5e" points="588.318,-222.985 598.116,-218.059 591.471,-219.103 594.623,-215.222 594.623,-215.222 594.623,-215.222 591.471,-219.103 591.13,-212.385 588.318,-222.985 588.318,-222.985"/>
</g>
<!-- Campaign&#45;&gt;Transaction -->
<g id="edge16" class="edge"><title>Campaign&#45;&gt;Transaction</title>
<path fill="none" stroke="#923a9b" d="M523.961,-456.094C591.23,-400.166 675.513,-325.705 743,-252 743.516,-251.436 744.033,-250.869 744.549,-250.3"/>
<ellipse fill="none" stroke="#923a9b" cx="520.584" cy="-458.895" rx="4.00002" ry="4.00002"/>
<polygon fill="#923a9b" stroke="#923a9b" points="744.606,-250.236 754.609,-245.743 747.924,-246.496 751.243,-242.756 751.243,-242.756 751.243,-242.756 747.924,-246.496 747.877,-239.769 744.606,-250.236 744.606,-250.236"/>
</g>
<!-- ActsAsTaggableOn::Tagging -->
<g id="node20" class="node"><title>ActsAsTaggableOn::Tagging</title>
<ellipse fill="none" stroke="black" cx="144" cy="-126" rx="144.25" ry="18.3848"/>
<text text-anchor="middle" x="144" y="-122.4" font-family="Times Roman,serif" font-size="14.00">ActsAsTaggableOn::Tagging</text>
</g>
<!-- Campaign&#45;&gt;ActsAsTaggableOn::Tagging -->
<g id="edge24" class="edge"><title>Campaign&#45;&gt;ActsAsTaggableOn::Tagging</title>
<path fill="none" stroke="#01853b" d="M290.292,-460.439C239.425,-414.91 184.718,-354.936 155,-288 135.75,-244.641 137.055,-188.282 140.21,-154.751"/>
<ellipse fill="none" stroke="#01853b" cx="293.481" cy="-463.265" rx="4.00002" ry="4.00002"/>
<polygon fill="#01853b" stroke="#01853b" points="140.22,-154.656 145.75,-145.187 140.747,-149.684 141.275,-144.712 141.275,-144.712 141.275,-144.712 140.747,-149.684 136.8,-144.237 140.22,-154.656 140.22,-154.656"/>
<text text-anchor="middle" x="199.5" y="-275.4" font-family="Times Roman,serif" font-size="14.00">tag_taggings</text>
</g>
<!-- Campaign&#45;&gt;ActsAsTaggableOn::Tagging -->
<g id="edge20" class="edge"><title>Campaign&#45;&gt;ActsAsTaggableOn::Tagging</title>
<path fill="none" stroke="#ddc80d" d="M292.355,-342.009C277.81,-317.504 262.821,-293.035 248,-270 220.932,-227.93 186.408,-181.356 164.747,-152.879"/>
<ellipse fill="none" stroke="#ddc80d" cx="294.409" cy="-345.478" rx="4.00002" ry="4.00002"/>
<polygon fill="#ddc80d" stroke="#ddc80d" points="164.53,-152.594 162.036,-141.915 161.495,-148.62 158.46,-144.647 158.46,-144.647 158.46,-144.647 161.495,-148.62 154.884,-147.378 164.53,-152.594 164.53,-152.594"/>
<text text-anchor="middle" x="287.5" y="-275.4" font-family="Times Roman,serif" font-size="14.00">taggings</text>
</g>
<!-- ActsAsTaggableOn::Tag -->
<g id="node22" class="node"><title>ActsAsTaggableOn::Tag</title>
<ellipse fill="none" stroke="black" cx="429" cy="-126" rx="123.243" ry="18.3848"/>
<text text-anchor="middle" x="429" y="-122.4" font-family="Times Roman,serif" font-size="14.00">ActsAsTaggableOn::Tag</text>
</g>
<!-- Campaign&#45;&gt;ActsAsTaggableOn::Tag -->
<g id="edge22" class="edge"><title>Campaign&#45;&gt;ActsAsTaggableOn::Tag</title>
<path fill="none" stroke="#03d278" d="M363.983,-296.558C364.911,-287.581 366.232,-278.706 368,-270 376.641,-227.449 398.291,-181.866 413.324,-153.644"/>
<polygon fill="#03d278" stroke="#03d278" points="363.965,-296.77 358.616,-306.342 363.532,-301.751 363.099,-306.732 363.099,-306.732 363.099,-306.732 363.532,-301.751 367.582,-307.122 363.965,-296.77 363.965,-296.77"/>
<polygon fill="#03d278" stroke="#03d278" points="413.371,-153.557 422.096,-146.914 415.756,-149.163 418.141,-144.768 418.141,-144.768 418.141,-144.768 415.756,-149.163 414.185,-142.622 413.371,-153.557 413.371,-153.557"/>
<text text-anchor="middle" x="402.5" y="-275.4" font-family="Times Roman,serif" font-size="14.00">base_tags</text>
</g>
<!-- Campaign&#45;&gt;ActsAsTaggableOn::Tag -->
<g id="edge26" class="edge"><title>Campaign&#45;&gt;ActsAsTaggableOn::Tag</title>
<path fill="none" stroke="#2ef154" d="M437.207,-296.647C437.304,-287.661 437.243,-278.757 437,-270 435.891,-230.052 433.055,-183.941 431.077,-154.881"/>
<polygon fill="#2ef154" stroke="#2ef154" points="437.204,-296.825 432.533,-306.746 437.118,-301.825 437.032,-306.824 437.032,-306.824 437.032,-306.824 437.118,-301.825 441.531,-306.901 437.204,-296.825 437.204,-296.825"/>
<polygon fill="#2ef154" stroke="#2ef154" points="431.058,-154.603 434.855,-144.315 430.712,-149.615 430.366,-144.627 430.366,-144.627 430.366,-144.627 430.712,-149.615 425.877,-144.938 431.058,-154.603 431.058,-154.603"/>
<text text-anchor="middle" x="453" y="-275.4" font-family="Times Roman,serif" font-size="14.00">tags</text>
</g>
<!-- Ability -->
<g id="node7" class="node"><title>Ability</title>
<polygon fill="none" stroke="black" points="1155,-975 1155,-1027 1215,-1027 1215,-975 1155,-975"/>
<text text-anchor="middle" x="1185" y="-1010.4" font-family="Times Roman,serif" font-size="14.00">Ability</text>
<polyline fill="none" stroke="black" points="1155,-1001 1215,-1001 "/>
<text text-anchor="middle" x="1185" y="-984.4" font-family="Times Roman,serif" font-size="14.00"> </text>
</g>
<!-- Category -->
<g id="node8" class="node"><title>Category</title>
<polyline fill="none" stroke="black" points="364.5,-948 505.5,-948 "/>
<path fill="none" stroke="black" d="M505.5,-948C511.5,-948 517.5,-954 517.5,-960"/>
<polyline fill="none" stroke="black" points="517.5,-960 517.5,-1042 "/>
<path fill="none" stroke="black" d="M517.5,-1042C517.5,-1048 511.5,-1054 505.5,-1054"/>
<polyline fill="none" stroke="black" points="505.5,-1054 364.5,-1054 "/>
<path fill="none" stroke="black" d="M364.5,-1054C358.5,-1054 352.5,-1048 352.5,-1042"/>
<polyline fill="none" stroke="black" points="352.5,-1042 352.5,-960 "/>
<path fill="none" stroke="black" d="M352.5,-960C352.5,-954 358.5,-948 364.5,-948"/>
<text text-anchor="middle" x="435" y="-1037.4" font-family="Times Roman,serif" font-size="14.00">Category</text>
<polyline fill="none" stroke="black" points="352.5,-1028 517.5,-1028 "/>
<text text-anchor="start" x="360.5" y="-1011.4" font-family="Times Roman,serif" font-size="14.00">id :integer</text>
<text text-anchor="start" x="360.5" y="-993.4" font-family="Times Roman,serif" font-size="14.00">name :string</text>
<text text-anchor="start" x="360.5" y="-975.4" font-family="Times Roman,serif" font-size="14.00">created_at :datetime</text>
<text text-anchor="start" x="360.5" y="-957.4" font-family="Times Roman,serif" font-size="14.00">updated_at :datetime</text>
</g>
<!-- Category&#45;&gt;Campaign -->
<g id="edge32" class="edge"><title>Category&#45;&gt;Campaign</title>
<path fill="none" stroke="#7ca038" d="M431.2,-939.652C428.91,-902.696 425.825,-852.895 422.626,-801.24"/>
<ellipse fill="none" stroke="#7ca038" cx="431.458" cy="-943.828" rx="4" ry="4"/>
<polygon fill="#7ca038" stroke="#7ca038" points="422.624,-801.214 426.497,-790.955 422.315,-796.223 422.006,-791.233 422.006,-791.233 422.006,-791.233 422.315,-796.223 417.514,-791.511 422.624,-801.214 422.624,-801.214"/>
</g>
<!-- ActiveRecord::Base -->
<g id="node9" class="node"><title>ActiveRecord::Base</title>
<ellipse fill="none" stroke="black" cx="590" cy="-1257" rx="104.151" ry="18.3848"/>
<text text-anchor="middle" x="590" y="-1253.4" font-family="Times Roman,serif" font-size="14.00">ActiveRecord::Base</text>
</g>
<!-- ActiveRecord::Base&#45;&gt;Vote -->
<g id="edge2" class="edge"><title>ActiveRecord::Base&#45;&gt;Vote</title>
<path fill="none" stroke="black" d="M582.58,-1238.46C576.209,-1221.49 567.514,-1195.5 564,-1172 541.523,-1021.67 554.555,-981.706 564,-830 577.834,-607.794 616.002,-348.414 637.245,-215.126"/>
</g>
<!-- ActiveRecord::Base&#45;&gt;AdminUser -->
<g id="edge4" class="edge"><title>ActiveRecord::Base&#45;&gt;AdminUser</title>
<path fill="none" stroke="black" d="M668.944,-1244.87C739.458,-1232.92 836.487,-1213.39 869,-1192 891.898,-1176.94 912.415,-1156.81 930.241,-1135.27"/>
</g>
<!-- ActiveRecord::Base&#45;&gt;User -->
<g id="edge12" class="edge"><title>ActiveRecord::Base&#45;&gt;User</title>
<path fill="none" stroke="black" d="M598.089,-1238.18C604.861,-1222.41 615.266,-1198.2 626.885,-1171.16"/>
</g>
<!-- ActiveRecord::Base&#45;&gt;Transaction -->
<g id="edge14" class="edge"><title>ActiveRecord::Base&#45;&gt;Transaction</title>
<path fill="none" stroke="black" d="M657.464,-1242.88C722.751,-1227.69 814.86,-1201.67 836,-1172 888.16,-1098.79 859.635,-513.104 844.032,-251.473"/>
</g>
<!-- ActiveRecord::Base&#45;&gt;Campaign -->
<g id="edge28" class="edge"><title>ActiveRecord::Base&#45;&gt;Campaign</title>
<path fill="none" stroke="black" d="M551.727,-1239.78C530.042,-1230.36 502.273,-1218.83 477,-1210 418.966,-1189.72 381.021,-1221.08 344,-1172 263.232,-1064.92 274.946,-916.356 308.761,-791.16"/>
</g>
<!-- ActiveRecord::Base&#45;&gt;Category -->
<g id="edge34" class="edge"><title>ActiveRecord::Base&#45;&gt;Category</title>
<path fill="none" stroke="black" d="M570.992,-1238.81C558.645,-1226.37 542.727,-1209.09 531,-1192 500.973,-1148.24 474.537,-1093.77 457.05,-1054.21"/>
</g>
<!-- Object -->
<g id="node26" class="node"><title>Object</title>
<ellipse fill="none" stroke="black" cx="1185" cy="-1257" rx="43.1335" ry="18.3848"/>
<text text-anchor="middle" x="1185" y="-1253.4" font-family="Times Roman,serif" font-size="14.00">Object</text>
</g>
<!-- Object&#45;&gt;Ability -->
<g id="edge30" class="edge"><title>Object&#45;&gt;Ability</title>
<path fill="none" stroke="black" d="M1185,-1238.18C1185,-1193.14 1185,-1079.1 1185,-1027.31"/>
</g>
</g>
</svg>
