<?xml version="1.0" encoding="UTF-8" standalone="no"?>
<!DOCTYPE svg PUBLIC "-//W3C//DTD SVG 1.1//EN"
 "http://www.w3.org/Graphics/SVG/1.1/DTD/svg11.dtd">
<!-- Generated by graphviz version 2.26.3 (20100126.1600)
 -->
<!-- Title: models_diagram Pages: 1 -->
<svg width="983pt" height="346pt"
 viewBox="0.00 0.00 983.00 346.00" xmlns="http://www.w3.org/2000/svg" xmlns:xlink="http://www.w3.org/1999/xlink">
<g id="graph1" class="graph" transform="scale(1 1) rotate(0) translate(4 342)">
<title>models_diagram</title>
<polygon fill="white" stroke="white" points="-4,5 -4,-342 980,-342 980,5 -4,5"/>
<!-- _diagram_info -->
<g id="node1" class="node"><title>_diagram_info</title>
<text text-anchor="start" x="258" y="-321.8" font-family="Times Roman,serif" font-size="13.00">Models diagram</text>
<text text-anchor="start" x="258" y="-304.8" font-family="Times Roman,serif" font-size="13.00">Date: Mar 17 2014 &#45; 13:44</text>
<text text-anchor="start" x="258" y="-287.8" font-family="Times Roman,serif" font-size="13.00">Migration version: 20140310084104</text>
<text text-anchor="start" x="258" y="-270.8" font-family="Times Roman,serif" font-size="13.00">Generated by RailRoady 1.1.1</text>
<text text-anchor="start" x="258" y="-253.8" font-family="Times Roman,serif" font-size="13.00">http://railroady.prestonlee.com</text>
</g>
<!-- Vote -->
<g id="node2" class="node"><title>Vote</title>
<ellipse fill="none" stroke="black" cx="604" cy="-19" rx="33.9411" ry="18.3848"/>
<text text-anchor="middle" x="604" y="-15.4" font-family="Times Roman,serif" font-size="14.00">Vote</text>
</g>
<!-- AdminUser -->
<g id="node3" class="node"><title>AdminUser</title>
<ellipse fill="none" stroke="black" cx="819" cy="-187" rx="65.0538" ry="18.3848"/>
<text text-anchor="middle" x="819" y="-183.4" font-family="Times Roman,serif" font-size="14.00">AdminUser</text>
</g>
<!-- User -->
<g id="node4" class="node"><title>User</title>
<ellipse fill="none" stroke="black" cx="662" cy="-187" rx="33.9411" ry="18.3848"/>
<text text-anchor="middle" x="662" y="-183.4" font-family="Times Roman,serif" font-size="14.00">User</text>
</g>
<!-- User&#45;&gt;Vote -->
<g id="edge10" class="edge"><title>User&#45;&gt;Vote</title>
<path fill="none" stroke="#563796" d="M653.011,-160.964C642.324,-130.008 624.561,-78.556 613.609,-46.832"/>
<ellipse fill="none" stroke="#563796" cx="654.377" cy="-164.92" rx="4.00001" ry="4.00001"/>
<polygon fill="#563796" stroke="#563796" points="613.573,-46.7287 614.563,-35.8076 611.941,-42.0025 610.31,-37.2762 610.31,-37.2762 610.31,-37.2762 611.941,-42.0025 606.056,-38.7447 613.573,-46.7287 613.573,-46.7287"/>
</g>
<!-- Transaction -->
<g id="node5" class="node"><title>Transaction</title>
<ellipse fill="none" stroke="black" cx="723" cy="-19" rx="67.1751" ry="18.3848"/>
<text text-anchor="middle" x="723" y="-15.4" font-family="Times Roman,serif" font-size="14.00">Transaction</text>
</g>
<!-- User&#45;&gt;Transaction -->
<g id="edge8" class="edge"><title>User&#45;&gt;Transaction</title>
<path fill="none" stroke="#9a937f" d="M671.446,-160.986C682.652,-130.121 701.266,-78.8582 712.795,-47.1052"/>
<ellipse fill="none" stroke="#9a937f" cx="670.009" cy="-164.941" rx="4.00001" ry="4.00001"/>
<polygon fill="#9a937f" stroke="#9a937f" points="712.858,-46.9315 720.501,-39.0678 714.565,-42.2317 716.271,-37.5319 716.271,-37.5319 716.271,-37.5319 714.565,-42.2317 712.041,-35.9961 712.858,-46.9315 712.858,-46.9315"/>
</g>
<!-- Campaign -->
<g id="node6" class="node"><title>Campaign</title>
<ellipse fill="none" stroke="black" cx="512" cy="-111" rx="60.1041" ry="18.3848"/>
<text text-anchor="middle" x="512" y="-107.4" font-family="Times Roman,serif" font-size="14.00">Campaign</text>
</g>
<!-- User&#45;&gt;Campaign -->
<g id="edge6" class="edge"><title>User&#45;&gt;Campaign</title>
<path fill="none" stroke="#560aec" d="M629.643,-170.606C607.012,-159.139 576.623,-143.742 552.4,-131.47"/>
<ellipse fill="none" stroke="#560aec" cx="633.325" cy="-172.471" rx="4.00002" ry="4.00002"/>
<polygon fill="#560aec" stroke="#560aec" points="552.368,-131.453 545.482,-122.919 547.908,-129.193 543.448,-126.934 543.448,-126.934 543.448,-126.934 547.908,-129.193 541.414,-130.948 552.368,-131.453 552.368,-131.453"/>
</g>
<!-- Campaign&#45;&gt;Vote -->
<g id="edge18" class="edge"><title>Campaign&#45;&gt;Vote</title>
<path fill="none" stroke="#ab36ed" d="M535.491,-87.5092C549.232,-73.7679 566.53,-56.4701 580.306,-42.6939"/>
<ellipse fill="none" stroke="#ab36ed" cx="532.567" cy="-90.433" rx="4.00002" ry="4.00002"/>
<polygon fill="#ab36ed" stroke="#ab36ed" points="580.481,-42.5189 590.734,-38.6297 584.017,-38.9833 587.552,-35.4478 587.552,-35.4478 587.552,-35.4478 584.017,-38.9833 584.37,-32.2658 580.481,-42.5189 580.481,-42.5189"/>
</g>
<!-- Campaign&#45;&gt;Transaction -->
<g id="edge16" class="edge"><title>Campaign&#45;&gt;Transaction</title>
<path fill="none" stroke="#39ec23" d="M554.371,-92.5254C590.088,-76.952 641.074,-54.7213 677.617,-38.788"/>
<ellipse fill="none" stroke="#39ec23" cx="550.509" cy="-94.2093" rx="4.00002" ry="4.00002"/>
<polygon fill="#39ec23" stroke="#39ec23" points="677.88,-38.6734 688.845,-38.8015 682.463,-36.675 687.046,-34.6766 687.046,-34.6766 687.046,-34.6766 682.463,-36.675 685.248,-30.5516 677.88,-38.6734 677.88,-38.6734"/>
</g>
<!-- ActsAsTaggableOn::Tagging -->
<g id="node20" class="node"><title>ActsAsTaggableOn::Tagging</title>
<ellipse fill="none" stroke="black" cx="144" cy="-19" rx="144.25" ry="18.3848"/>
<text text-anchor="middle" x="144" y="-15.4" font-family="Times Roman,serif" font-size="14.00">ActsAsTaggableOn::Tagging</text>
</g>
<!-- Campaign&#45;&gt;ActsAsTaggableOn::Tagging -->
<g id="edge24" class="edge"><title>Campaign&#45;&gt;ActsAsTaggableOn::Tagging</title>
<path fill="none" stroke="#88679a" d="M444.17,-108.555C364.316,-104.734 237.215,-95.4256 195,-74 182.045,-67.4251 170.696,-56.1355 162.013,-45.4891"/>
<ellipse fill="none" stroke="#88679a" cx="448.229" cy="-108.743" rx="4" ry="4"/>
<polygon fill="#88679a" stroke="#88679a" points="162.011,-45.4859 159.477,-34.8169 158.961,-41.5239 155.911,-37.5619 155.911,-37.5619 155.911,-37.5619 158.961,-41.5239 152.345,-40.3069 162.011,-45.4859 162.011,-45.4859"/>
<text text-anchor="middle" x="239.5" y="-61.4" font-family="Times Roman,serif" font-size="14.00">tag_taggings</text>
</g>
<!-- Campaign&#45;&gt;ActsAsTaggableOn::Tagging -->
<g id="edge20" class="edge"><title>Campaign&#45;&gt;ActsAsTaggableOn::Tagging</title>
<path fill="none" stroke="#5e6c21" d="M456.039,-97.7792C426.799,-90.8145 390.441,-82.0653 358,-74 311.129,-62.347 258.598,-48.8525 217.312,-38.1467"/>
<ellipse fill="none" stroke="#5e6c21" cx="460.197" cy="-98.7684" rx="4.00001" ry="4.00001"/>
<polygon fill="#5e6c21" stroke="#5e6c21" points="217.288,-38.1404 208.739,-31.2723 212.448,-36.8842 207.608,-35.628 207.608,-35.628 207.608,-35.628 212.448,-36.8842 206.478,-39.9837 217.288,-38.1404 217.288,-38.1404"/>
<text text-anchor="middle" x="387.5" y="-61.4" font-family="Times Roman,serif" font-size="14.00">taggings</text>
</g>
<!-- ActsAsTaggableOn::Tag -->
<g id="node22" class="node"><title>ActsAsTaggableOn::Tag</title>
<ellipse fill="none" stroke="black" cx="429" cy="-19" rx="123.243" ry="18.3848"/>
<text text-anchor="middle" x="429" y="-15.4" font-family="Times Roman,serif" font-size="14.00">ActsAsTaggableOn::Tag</text>
</g>
<!-- Campaign&#45;&gt;ActsAsTaggableOn::Tag -->
<g id="edge22" class="edge"><title>Campaign&#45;&gt;ActsAsTaggableOn::Tag</title>
<path fill="none" stroke="#8656da" d="M452.524,-96.2668C442.035,-90.9634 432.429,-83.7649 426,-74 420.918,-66.2818 420.101,-56.5538 421.052,-47.4329"/>
<polygon fill="#8656da" stroke="#8656da" points="452.781,-96.3811 460.079,-104.566 457.347,-98.4188 461.913,-100.456 461.913,-100.456 461.913,-100.456 457.347,-98.4188 463.747,-96.3471 452.781,-96.3811 452.781,-96.3811"/>
<polygon fill="#8656da" stroke="#8656da" points="421.059,-47.3896 427.18,-38.2909 421.902,-42.4611 422.744,-37.5326 422.744,-37.5326 422.744,-37.5326 421.902,-42.4611 418.309,-36.7743 421.059,-47.3896 421.059,-47.3896"/>
<text text-anchor="middle" x="460.5" y="-61.4" font-family="Times Roman,serif" font-size="14.00">base_tags</text>
</g>
<!-- Campaign&#45;&gt;ActsAsTaggableOn::Tag -->
<g id="edge26" class="edge"><title>Campaign&#45;&gt;ActsAsTaggableOn::Tag</title>
<path fill="none" stroke="#e00635" d="M507.497,-82.326C504.981,-73.188 501.071,-63.5108 495,-56 490.728,-50.7149 485.487,-46.0549 479.843,-41.9831"/>
<polygon fill="#e00635" stroke="#e00635" points="507.542,-82.5244 505.4,-93.2789 508.664,-87.397 509.785,-92.2697 509.785,-92.2697 509.785,-92.2697 508.664,-87.397 514.17,-91.2605 507.542,-82.5244 507.542,-82.5244"/>
<polygon fill="#e00635" stroke="#e00635" points="479.724,-41.9048 473.815,-32.6672 475.538,-39.1695 471.353,-36.4341 471.353,-36.4341 471.353,-36.4341 475.538,-39.1695 468.891,-40.201 479.724,-41.9048 479.724,-41.9048"/>
<text text-anchor="middle" x="520" y="-61.4" font-family="Times Roman,serif" font-size="14.00">tags</text>
</g>
<!-- Ability -->
<g id="node7" class="node"><title>Ability</title>
<polygon fill="none" stroke="black" points="962,-205 902,-205 902,-169 962,-169 962,-205"/>
<text text-anchor="middle" x="932" y="-183.4" font-family="Times Roman,serif" font-size="14.00">Ability</text>
</g>
<!-- Category -->
<g id="node8" class="node"><title>Category</title>
<ellipse fill="none" stroke="black" cx="516" cy="-187" rx="56.0679" ry="18.3848"/>
<text text-anchor="middle" x="516" y="-183.4" font-family="Times Roman,serif" font-size="14.00">Category</text>
</g>
<!-- Category&#45;&gt;Campaign -->
<g id="edge32" class="edge"><title>Category&#45;&gt;Campaign</title>
<path fill="none" stroke="#da3037" d="M514.583,-160.073C514.234,-153.449 513.86,-146.332 513.507,-139.63"/>
<ellipse fill="none" stroke="#da3037" cx="514.801" cy="-164.219" rx="4" ry="4"/>
<polygon fill="#da3037" stroke="#da3037" points="513.503,-139.557 517.471,-129.334 513.24,-134.564 512.977,-129.57 512.977,-129.57 512.977,-129.57 513.24,-134.564 508.484,-129.807 513.503,-139.557 513.503,-139.557"/>
</g>
<!-- ActiveRecord::Base -->
<g id="node9" class="node"><title>ActiveRecord::Base</title>
<ellipse fill="none" stroke="black" cx="622" cy="-291" rx="104.151" ry="18.3848"/>
<text text-anchor="middle" x="622" y="-287.4" font-family="Times Roman,serif" font-size="14.00">ActiveRecord::Base</text>
</g>
<!-- ActiveRecord::Base&#45;&gt;Vote -->
<g id="edge2" class="edge"><title>ActiveRecord::Base&#45;&gt;Vote</title>
<path fill="none" stroke="black" d="M620.763,-272.304C617.474,-222.614 608.544,-87.6659 605.246,-37.8265"/>
</g>
<!-- ActiveRecord::Base&#45;&gt;AdminUser -->
<g id="edge4" class="edge"><title>ActiveRecord::Base&#45;&gt;AdminUser</title>
<path fill="none" stroke="black" d="M655.418,-273.358C692.522,-253.77 751.927,-222.409 788.019,-203.355"/>
</g>
<!-- ActiveRecord::Base&#45;&gt;User -->
<g id="edge12" class="edge"><title>ActiveRecord::Base&#45;&gt;User</title>
<path fill="none" stroke="black" d="M629.151,-272.407C636.432,-253.477 647.652,-224.304 654.911,-205.432"/>
</g>
<!-- ActiveRecord::Base&#45;&gt;Transaction -->
<g id="edge14" class="edge"><title>ActiveRecord::Base&#45;&gt;Transaction</title>
<path fill="none" stroke="black" d="M647.383,-272.849C666.759,-257.444 692.231,-233.499 705,-206 731.374,-149.203 728.312,-72.4142 725.133,-37.5694"/>
</g>
<!-- ActiveRecord::Base&#45;&gt;Campaign -->
<g id="edge28" class="edge"><title>ActiveRecord::Base&#45;&gt;Campaign</title>
<path fill="none" stroke="black" d="M582.112,-273.832C533.99,-252.721 458.553,-218.188 451,-206 442.104,-191.644 444.273,-183.492 451,-168 458.158,-151.514 472.694,-137.626 485.78,-127.686"/>
</g>
<!-- ActiveRecord::Base&#45;&gt;Category -->
<g id="edge34" class="edge"><title>ActiveRecord::Base&#45;&gt;Category</title>
<path fill="none" stroke="black" d="M603.049,-272.407C583.517,-253.243 553.285,-223.582 534.079,-204.738"/>
</g>
<!-- Object -->
<g id="node26" class="node"><title>Object</title>
<ellipse fill="none" stroke="black" cx="932" cy="-291" rx="43.1335" ry="18.3848"/>
<text text-anchor="middle" x="932" y="-287.4" font-family="Times Roman,serif" font-size="14.00">Object</text>
</g>
<!-- Object&#45;&gt;Ability -->
<g id="edge30" class="edge"><title>Object&#45;&gt;Ability</title>
<path fill="none" stroke="black" d="M932,-272.407C932,-253.36 932,-223.943 932,-205.084"/>
</g>
</g>
</svg>
